<svg width="24" height="28" viewBox="0 0 24 28" fill="none" xmlns="http://www.w3.org/2000/svg">
<path d="M23.9956 5.22819C23.9928 3.88107 23.2113 3.20346 21.8298 3.23855C21.361 3.24935 21.2577 3.42753 21.2689 3.82978C21.2884 4.51008 21.2996 5.19309 21.2633 5.8734C21.2075 6.97485 20.5321 7.66056 19.4045 7.74695C18.8073 7.79284 18.2016 7.79014 17.6072 7.74965C16.3959 7.66866 15.7177 6.95866 15.6898 5.78161C15.6759 5.1256 15.6675 4.46959 15.6926 3.81358C15.7094 3.39243 15.5614 3.24125 15.1149 3.24395C13.0273 3.26285 10.9397 3.26285 8.85487 3.24395C8.38042 3.23855 8.28832 3.43563 8.30227 3.83247C8.3246 4.51278 8.32181 5.19579 8.30506 5.8761C8.27994 6.90466 7.66594 7.60387 6.61098 7.71995C5.96628 7.79284 5.30762 7.78744 4.65734 7.74965C3.4712 7.68216 2.80975 7.00185 2.76789 5.8464C2.74556 5.1661 2.74277 4.48309 2.76789 3.80278C2.78463 3.37354 2.6116 3.24935 2.17621 3.24125C0.75564 3.21156 0.00209319 3.89997 0.00209319 5.30378C-0.000697728 12.0178 -0.000697728 18.7291 0.00209319 25.4431C0.00209319 26.8901 0.646794 27.5245 2.13993 27.5272C8.71533 27.5326 15.2879 27.5326 21.8633 27.5272C23.3676 27.5272 23.9956 26.9063 23.9956 25.4458C24.0012 22.0901 23.9956 18.7318 23.9956 15.3761C23.9984 11.9908 24.004 8.60813 23.9956 5.22819ZM2.7344 10.0011C2.73157 9.6502 2.8879 9.50981 3.25072 9.50981C4.78572 9.51791 6.32072 9.51791 7.85293 9.51251C8.18226 9.51251 8.31064 9.6448 8.30785 9.96605C8.29669 11.1728 8.2939 12.3822 8.31064 13.589C8.31622 13.9885 8.09295 14.0344 7.76921 14.0317C7.01566 14.0236 6.26211 14.029 5.50578 14.029C4.75223 14.029 3.99589 14.0182 3.24234 14.0344C2.87673 14.0425 2.72882 13.9075 2.73157 13.5512C2.74556 12.366 2.74277 11.1836 2.7344 10.0011ZM8.31343 24.3362C8.31902 24.7223 8.18784 24.8762 7.78037 24.8708C6.29839 24.8573 4.81642 24.8573 3.33444 24.8708C2.90185 24.8762 2.72603 24.7304 2.73161 24.3038C2.74835 23.1457 2.74556 21.9902 2.7344 20.8321C2.73161 20.4784 2.87673 20.3381 3.24234 20.3462C3.99589 20.3624 4.74944 20.3516 5.50578 20.3516C6.25932 20.3516 7.01566 20.3651 7.76921 20.3462C8.16552 20.3354 8.32181 20.4649 8.31623 20.8645C8.2939 22.0226 8.29669 23.1808 8.31343 24.3362ZM7.68269 19.4634C6.95426 19.4337 6.22304 19.4553 5.49182 19.4553C4.78851 19.4553 4.08241 19.4337 3.3791 19.4634C2.92139 19.4823 2.71765 19.3608 2.72882 18.8776C2.75393 17.7437 2.75114 16.6072 2.73161 15.4706C2.72323 15.0333 2.90743 14.9118 3.33444 14.9172C4.79409 14.9361 6.25653 14.9442 7.71618 14.9145C8.22413 14.9037 8.3246 15.1035 8.31623 15.5381C8.2939 16.6477 8.28553 17.7599 8.31902 18.8695C8.33018 19.35 8.14598 19.4823 7.68269 19.4634ZM9.75355 9.51251C11.2411 9.52061 12.7287 9.52331 14.2162 9.50978C14.6181 9.50711 14.7716 9.6502 14.766 10.0416C14.7493 11.2025 14.7465 12.3633 14.766 13.5242C14.7716 13.9372 14.5818 14.0398 14.1995 14.0317C13.4431 14.0155 12.6868 14.0263 11.9305 14.0263C11.1992 14.0263 10.468 14.0155 9.73959 14.0317C9.37119 14.0398 9.23444 13.9048 9.23723 13.5458C9.25118 12.3606 9.25118 11.1728 9.23723 9.98765C9.23164 9.6151 9.40189 9.50978 9.75355 9.51251ZM9.23444 15.449C9.22885 15.0657 9.35445 14.9145 9.77029 14.9199C11.2551 14.9388 12.7398 14.9361 14.2274 14.9199C14.6404 14.9145 14.7716 15.0684 14.766 15.4517C14.7521 16.6099 14.7521 17.7707 14.766 18.9316C14.7716 19.3176 14.6349 19.4715 14.2246 19.4607C13.4683 19.4391 12.7147 19.4553 11.9584 19.4553C11.2551 19.4553 10.5517 19.4418 9.84844 19.4607C9.44096 19.4742 9.22327 19.3905 9.23444 18.9289C9.25955 17.7707 9.25118 16.6099 9.23444 15.449ZM14.7716 24.266C14.7828 24.7304 14.6069 24.8816 14.1353 24.8762C12.7008 24.8546 11.2662 24.86 9.8289 24.8735C9.40189 24.8789 9.22048 24.7574 9.23164 24.3146C9.25676 23.1781 9.25676 22.0442 9.23164 20.9077C9.22327 20.4757 9.38235 20.33 9.81774 20.3462C10.5462 20.3705 11.2774 20.3543 12.0086 20.3543C12.7119 20.3543 13.418 20.3732 14.1213 20.3462C14.579 20.33 14.78 20.4541 14.7688 20.9347C14.7409 22.0442 14.7437 23.1565 14.7716 24.266ZM15.6814 10.047C15.6759 9.66099 15.8154 9.50441 16.2229 9.50981C17.7076 9.52331 19.1896 9.52331 20.6744 9.50981C21.093 9.50711 21.2912 9.6313 21.2828 10.0713C21.2633 11.2295 21.2689 12.3876 21.28 13.5458C21.2828 13.9021 21.1405 14.0398 20.7721 14.0317C19.9906 14.0182 19.2092 14.0263 18.4305 14.0263C17.7272 14.0263 17.0239 14.0074 16.3234 14.0344C15.8684 14.0506 15.6675 13.9264 15.6814 13.4459C15.7066 12.3147 15.6982 11.1809 15.6814 10.047ZM21.2773 24.3848C21.28 24.7493 21.1014 24.8681 20.7525 24.8681C19.2175 24.8627 17.6797 24.8627 16.1447 24.8681C15.8154 24.8681 15.6814 24.7304 15.6842 24.4118C15.6926 23.2024 15.6954 21.9956 15.6842 20.7862C15.6814 20.384 15.9243 20.3489 16.2396 20.3516C16.9932 20.357 17.7495 20.3543 18.5031 20.3543C19.2566 20.3543 20.0129 20.3651 20.7665 20.3516C21.1321 20.3435 21.28 20.4784 21.2744 20.8375C21.2661 22.0172 21.2661 23.2024 21.2773 24.3848ZM20.6325 19.4607C19.9041 19.4337 19.1757 19.4526 18.4472 19.4526C17.6937 19.4526 16.9374 19.4391 16.1838 19.4553C15.8154 19.4634 15.6759 19.3257 15.6814 18.9693C15.6926 17.7869 15.6982 16.6045 15.6787 15.422C15.6731 15.009 15.8629 14.9145 16.2452 14.9172C17.7272 14.9307 19.2092 14.9334 20.6911 14.9145C21.1321 14.9091 21.2884 15.0549 21.28 15.4787C21.2605 16.6099 21.2549 17.7437 21.2828 18.8749C21.2968 19.3662 21.0819 19.4769 20.6325 19.4607ZM5.63974 6.82907C6.58586 6.76698 7.31987 6.03808 7.36731 5.08781C7.38964 4.60997 7.37011 4.12943 7.37011 3.6516C7.37011 3.19806 7.38685 2.74452 7.36731 2.29098C7.32266 1.32991 6.6054 0.606407 5.65648 0.536216C4.71595 0.468725 3.86472 1.09504 3.73634 2.05341C3.59121 3.12787 3.59679 4.22122 3.73354 5.29568C3.85355 6.25405 4.70199 6.88847 5.63974 6.82907ZM18.4221 6.83177C19.438 6.86957 20.2585 6.10287 20.3311 5.02032C20.359 4.59377 20.3367 4.16453 20.3367 3.73529H20.3339C20.3339 3.25745 20.3646 2.77422 20.3283 2.29908C20.2474 1.26242 19.4408 0.520019 18.4528 0.533517C17.462 0.547015 16.6666 1.30831 16.6276 2.34497C16.5941 3.22506 16.5969 4.11054 16.6276 4.99062C16.6611 6.03808 17.4202 6.79398 18.4221 6.83177Z" fill="white"/>
</svg>
