<svg width="24" height="20" viewBox="0 0 24 20" fill="none" xmlns="http://www.w3.org/2000/svg">
<path d="M24 2.32217C23.1169 2.71436 22.168 2.97765 21.1724 3.09833C22.1899 2.48946 22.9688 1.52406 23.3363 0.374908C22.3846 0.939887 21.3288 1.34854 20.2098 1.57069C19.313 0.613515 18.0322 0.015625 16.6171 0.015625C13.8965 0.015625 11.6915 2.21795 11.6915 4.93862C11.6915 5.32533 11.7353 5.70107 11.8176 6.06035C7.72575 5.85465 4.09736 3.89643 1.67021 0.915203C1.24786 1.642 1.00377 2.48946 1.00377 3.39179C1.00377 5.10044 1.87316 6.60613 3.19232 7.48925C2.38601 7.46457 1.62633 7.24242 0.962633 6.87217V6.93525C0.962633 9.32132 2.66027 11.3097 4.9119 11.7622C4.50051 11.8747 4.06445 11.935 3.61467 11.935C3.29654 11.935 2.98937 11.9049 2.69044 11.8473C3.31574 13.8028 5.13404 15.2262 7.28694 15.2673C5.60302 16.5865 3.48303 17.3736 1.17381 17.3736C0.77614 17.3736 0.386699 17.3517 0 17.3051C2.18032 18.7011 4.76654 19.5156 7.54748 19.5156C16.6034 19.5156 21.5564 12.0146 21.5564 5.50909C21.5564 5.29516 21.5509 5.08398 21.5427 4.8728C22.5053 4.17617 23.3418 3.30951 24 2.32217Z" fill="#1B1A1A"/>
</svg>
