<svg width="24" height="25" viewBox="0 0 24 25" fill="none" xmlns="http://www.w3.org/2000/svg">
<path d="M12 6.53388C8.5638 6.53388 5.76825 9.32943 5.76825 12.7656C5.76825 16.2018 8.5638 18.9949 12 18.9949C15.4362 18.9949 18.2293 16.1994 18.2293 12.7656C18.2317 9.32943 15.4362 6.53388 12 6.53388ZM12 16.6192C9.87422 16.6192 8.14641 14.8914 8.14641 12.7656C8.14641 10.6398 9.87422 8.91203 12 8.91203C14.1258 8.91203 15.8536 10.6398 15.8536 12.7656C15.8536 14.8914 14.1258 16.6192 12 16.6192ZM17.0936 0.765625H6.90637C3.09889 0.765625 0 3.86451 0 7.672V17.8593C0 21.6667 3.09889 24.7656 6.90637 24.7656H17.0936C20.9011 24.7656 24 21.6667 24 17.8593V7.672C24 3.86451 20.9035 0.765625 17.0936 0.765625ZM21.6243 17.8593C21.6243 20.3563 19.5907 22.3875 17.0936 22.3875H6.90637C4.4093 22.3875 2.37816 20.3563 2.37816 17.8593V7.672C2.37816 5.17493 4.4093 3.14378 6.90637 3.14378H17.0936C19.5907 3.14378 21.6218 5.17493 21.6218 7.672V17.8593H21.6243ZM18.3167 4.73327C17.4188 4.73327 16.6859 5.4637 16.6859 6.36401C16.6859 7.26188 17.4164 7.99475 18.3167 7.99475C19.2146 7.99475 19.9474 7.26431 19.9474 6.36401C19.9474 5.4637 19.2146 4.73327 18.3167 4.73327Z" fill="#1B1A1A"/>
</svg>
