<svg width="24" height="21" viewBox="0 0 24 21" fill="none" xmlns="http://www.w3.org/2000/svg">
<path d="M23.604 0.870741C23.484 0.783372 23.3448 0.753417 23.208 0.715973H4.8288C5.3016 1.15781 5.604 1.79436 5.604 2.50579C5.604 3.21722 5.3016 3.85127 4.8312 4.2956C10.9152 4.29311 16.9992 4.29061 23.0832 4.29061H23.1552C23.352 4.29311 23.5224 4.22321 23.6736 4.0984C23.844 3.95861 23.9352 3.76889 24 3.5617V1.46485C23.9328 1.22022 23.8104 1.01552 23.604 0.870741ZM3.7968 2.50579C3.7968 3.59665 2.9472 4.48033 1.8984 4.48033C0.8496 4.48033 0 3.59665 0 2.50579C0 1.41492 0.8496 0.53125 1.8984 0.53125C2.9472 0.53125 3.7968 1.41492 3.7968 2.50579ZM23.208 6.07044H4.8288C5.3016 6.51477 5.604 7.14882 5.604 7.86026C5.604 8.57169 5.3016 9.20823 4.8312 9.65007C10.9152 9.64758 16.9992 9.64758 23.0832 9.64758H23.1552C23.352 9.65007 23.5224 9.57768 23.6736 9.45287C23.844 9.31308 23.9352 9.12336 24 8.91617V6.81932C23.9328 6.57468 23.8104 6.36999 23.604 6.22521C23.484 6.14034 23.3448 6.10789 23.208 6.07044ZM3.7968 7.86026C3.7968 8.95112 2.9472 9.83729 1.8984 9.83729C0.8496 9.83729 0 8.95112 0 7.86026C0 6.77189 0.8496 5.88572 1.8984 5.88572C2.9472 5.88572 3.7968 6.77189 3.7968 7.86026ZM23.208 11.4199H4.8288C5.3016 11.8643 5.604 12.4983 5.604 13.2097C5.604 13.9212 5.3016 14.5577 4.8312 14.9995C10.9152 14.9971 16.9992 14.9971 23.0832 14.9971H23.1552C23.352 14.9995 23.5224 14.9272 23.6736 14.8023C23.844 14.6626 23.9352 14.4728 24 14.2681V12.1688C23.9328 11.9242 23.8104 11.7195 23.604 11.5747C23.484 11.4898 23.3448 11.4574 23.208 11.4199ZM3.7968 13.2097C3.7968 14.3006 2.9472 15.1868 1.8984 15.1868C0.8496 15.1868 0 14.3006 0 13.2097C0 12.1214 0.8496 11.2352 1.8984 11.2352C2.9472 11.2352 3.7968 12.1214 3.7968 13.2097ZM23.208 16.7669H4.8288C5.3016 17.2087 5.604 17.8453 5.604 18.5567C5.604 19.2681 5.3016 19.9022 4.8312 20.3465C10.9152 20.344 16.9992 20.3415 23.0832 20.3415H23.1552C23.352 20.3465 23.5224 20.2741 23.6736 20.1493C23.844 20.0095 23.9352 19.8198 24 19.6126V17.5158C23.9328 17.2711 23.8104 17.0664 23.604 16.9217C23.484 16.8343 23.3448 16.8043 23.208 16.7669ZM3.7968 18.5567C3.7968 19.6476 2.9472 20.5312 1.8984 20.5312C0.8496 20.5312 0 19.6476 0 18.5567C0 17.4658 0.8496 16.5822 1.8984 16.5822C2.9472 16.5822 3.7968 17.4658 3.7968 18.5567Z" fill="white"/>
</svg>
