<svg width="24" height="22" viewBox="0 0 24 22" fill="none" xmlns="http://www.w3.org/2000/svg">
<path d="M13.1613 0.09375H1.54839C0.693237 0.09375 0 0.793305 0 1.65625V20.4062C0 21.2692 0.693237 21.9688 1.54839 21.9688H13.1613C14.0164 21.9688 14.7097 21.2692 14.7097 20.4062V1.65625C14.7097 0.793305 14.0164 0.09375 13.1613 0.09375Z" fill="white"/>
<path d="M22.4516 0.09375H18.5806C17.7255 0.09375 17.0322 0.793305 17.0322 1.65625V20.4062C17.0322 21.2692 17.7255 21.9688 18.5806 21.9688H22.4516C23.3067 21.9688 24 21.2692 24 20.4062V1.65625C24 0.793305 23.3067 0.09375 22.4516 0.09375Z" fill="white"/>
</svg>
