<svg width="24" height="15" viewBox="0 0 24 15" fill="none" xmlns="http://www.w3.org/2000/svg">
<path d="M2.96426 13.8837L3.89185 11.2421H9.49773L10.4253 13.8837H13.4098L8.34833 0H5.06143L0 13.8837H2.96426ZM8.73146 9.01748H4.65812L6.69479 3.21769L8.73146 9.01748ZM18.2206 14.0625C19.054 14.0625 19.7901 13.8937 20.4286 13.556C21.0672 13.2184 21.568 12.7913 21.9309 12.2749V13.8837H24.7742V2.88003H21.9309V4.44915C21.5545 3.94598 21.0537 3.52887 20.4286 3.19783C19.8035 2.86679 19.0742 2.70127 18.2407 2.70127C17.2862 2.70127 16.4225 2.933 15.6495 3.39645C14.8765 3.85991 14.2648 4.52198 13.8145 5.38268C13.3641 6.24338 13.139 7.22987 13.139 8.34216C13.139 9.46769 13.3641 10.4641 13.8145 11.3314C14.2648 12.1988 14.8765 12.8708 15.6495 13.3475C16.4225 13.8242 17.2795 14.0625 18.2206 14.0625ZM18.9667 11.6194C18.4558 11.6194 17.9752 11.487 17.5249 11.2222C17.0745 10.9574 16.7115 10.5767 16.4359 10.0801C16.1604 9.58355 16.0226 9.00424 16.0226 8.34216C16.0226 7.68008 16.1604 7.10739 16.4359 6.62407C16.7115 6.14076 17.0711 5.7733 17.5148 5.52172C17.9584 5.27013 18.4424 5.14433 18.9667 5.14433C19.491 5.14433 19.9816 5.27344 20.4387 5.53165C20.8958 5.78986 21.2588 6.16062 21.5276 6.64394C21.7965 7.12725 21.9309 7.70657 21.9309 8.38189C21.9309 9.0572 21.7965 9.63652 21.5276 10.1198C21.2588 10.6032 20.8958 10.9739 20.4387 11.2321C19.9816 11.4903 19.491 11.6194 18.9667 11.6194Z" fill="white"/>
</svg>
